<mxfile host="app.diagrams.net" modified="2024-05-09T14:33:37.938Z" agent="Mozilla/5.0 (X11; Linux x86_64) AppleWebKit/537.36 (KHTML, like Gecko) Chrome/123.0.0.0 Safari/537.36" etag="xG1t2jIgc19KgA4wVTHk" version="24.3.1" type="github">
  <diagram name="Page-1" id="sqYPtLHclBDNFgjRPG3a">
    <mxGraphModel dx="1364" dy="793" grid="1" gridSize="10" guides="1" tooltips="1" connect="1" arrows="1" fold="1" page="1" pageScale="1" pageWidth="850" pageHeight="1100" math="0" shadow="0">
      <root>
        <mxCell id="0" />
        <mxCell id="1" parent="0" />
        <mxCell id="QdsSLya6QAIqgxpIaFuF-2" value="" style="shape=ext;double=1;whiteSpace=wrap;html=1;aspect=fixed;" vertex="1" parent="1">
          <mxGeometry x="190" y="120" width="700" height="700" as="geometry" />
        </mxCell>
        <mxCell id="QdsSLya6QAIqgxpIaFuF-3" value="&lt;b&gt;Kubernetes Local Control Plane&lt;/b&gt;" style="text;html=1;align=center;verticalAlign=middle;whiteSpace=wrap;rounded=0;" vertex="1" parent="1">
          <mxGeometry x="200" y="50" width="102.5" height="50" as="geometry" />
        </mxCell>
        <mxCell id="QdsSLya6QAIqgxpIaFuF-8" value="&lt;b&gt;MongoDB&lt;br&gt;&lt;/b&gt;&lt;div&gt;&lt;span style=&quot;background-color: rgb(255, 255, 255); font-family: &amp;quot;Droid Sans Mono&amp;quot;, &amp;quot;monospace&amp;quot;, monospace; white-space: pre;&quot;&gt;&lt;font style=&quot;font-size: 10px;&quot;&gt;LOCALHOST:27017&lt;/font&gt;&lt;/span&gt;&lt;/div&gt;&lt;div&gt;&lt;span style=&quot;background-color: rgb(255, 255, 255); font-family: &amp;quot;Droid Sans Mono&amp;quot;, &amp;quot;monospace&amp;quot;, monospace; white-space: pre;&quot;&gt;&lt;font style=&quot;font-size: 10px;&quot;&gt;CLUSTERID:30000&lt;/font&gt;&lt;/span&gt;&lt;br&gt;&lt;/div&gt;" style="shape=cube;whiteSpace=wrap;html=1;boundedLbl=1;backgroundOutline=1;darkOpacity=0.05;darkOpacity2=0.1;" vertex="1" parent="1">
          <mxGeometry x="290" y="150" width="160" height="70" as="geometry" />
        </mxCell>
        <mxCell id="QdsSLya6QAIqgxpIaFuF-9" value="&lt;b&gt;Mongo Express&lt;/b&gt;&lt;div&gt;&lt;div&gt;&lt;span style=&quot;background-color: rgb(255, 255, 255); font-family: &amp;quot;Droid Sans Mono&amp;quot;, &amp;quot;monospace&amp;quot;, monospace; white-space: pre;&quot;&gt;&lt;font style=&quot;font-size: 10px;&quot;&gt;LOCALHOST:8081&lt;/font&gt;&lt;/span&gt;&lt;/div&gt;&lt;/div&gt;" style="shape=cube;whiteSpace=wrap;html=1;boundedLbl=1;backgroundOutline=1;darkOpacity=0.05;darkOpacity2=0.1;" vertex="1" parent="1">
          <mxGeometry x="290" y="240" width="160" height="60" as="geometry" />
        </mxCell>
        <mxCell id="QdsSLya6QAIqgxpIaFuF-10" value="&lt;b&gt;Jenkins&lt;/b&gt;&lt;div&gt;&lt;span style=&quot;font-family: &amp;quot;Droid Sans Mono&amp;quot;, &amp;quot;monospace&amp;quot;, monospace; white-space: pre; background-color: rgb(255, 255, 255);&quot;&gt;&lt;font style=&quot;font-size: 10px;&quot;&gt;LOCALHOST:8080&lt;/font&gt;&lt;/span&gt;&lt;br&gt;&lt;/div&gt;" style="shape=cube;whiteSpace=wrap;html=1;boundedLbl=1;backgroundOutline=1;darkOpacity=0.05;darkOpacity2=0.1;" vertex="1" parent="1">
          <mxGeometry x="290" y="320" width="160" height="70" as="geometry" />
        </mxCell>
        <mxCell id="QdsSLya6QAIqgxpIaFuF-11" value="&lt;b&gt;Sendgrid&lt;/b&gt;" style="ellipse;shape=cloud;whiteSpace=wrap;html=1;" vertex="1" parent="1">
          <mxGeometry x="80" y="330" width="100" height="60" as="geometry" />
        </mxCell>
        <mxCell id="QdsSLya6QAIqgxpIaFuF-12" value="" style="endArrow=classic;html=1;rounded=0;exitX=0.875;exitY=0.5;exitDx=0;exitDy=0;exitPerimeter=0;entryX=-0.019;entryY=0.55;entryDx=0;entryDy=0;entryPerimeter=0;" edge="1" parent="1" source="QdsSLya6QAIqgxpIaFuF-11" target="QdsSLya6QAIqgxpIaFuF-10">
          <mxGeometry width="50" height="50" relative="1" as="geometry">
            <mxPoint x="600" y="420" as="sourcePoint" />
            <mxPoint x="650" y="370" as="targetPoint" />
          </mxGeometry>
        </mxCell>
        <mxCell id="QdsSLya6QAIqgxpIaFuF-14" value="Run Python pod" style="rounded=1;whiteSpace=wrap;html=1;" vertex="1" parent="1">
          <mxGeometry x="590" y="350" width="110" height="30" as="geometry" />
        </mxCell>
        <mxCell id="QdsSLya6QAIqgxpIaFuF-15" value="" style="endArrow=classic;html=1;rounded=0;exitX=0;exitY=0;exitDx=160;exitDy=45;exitPerimeter=0;entryX=0;entryY=0.5;entryDx=0;entryDy=0;" edge="1" parent="1" source="QdsSLya6QAIqgxpIaFuF-10" target="QdsSLya6QAIqgxpIaFuF-14">
          <mxGeometry width="50" height="50" relative="1" as="geometry">
            <mxPoint x="600" y="300" as="sourcePoint" />
            <mxPoint x="650" y="250" as="targetPoint" />
          </mxGeometry>
        </mxCell>
        <mxCell id="QdsSLya6QAIqgxpIaFuF-16" value="Jenkinsfile" style="text;html=1;align=center;verticalAlign=middle;whiteSpace=wrap;rounded=0;" vertex="1" parent="1">
          <mxGeometry x="490" y="330" width="60" height="30" as="geometry" />
        </mxCell>
        <mxCell id="QdsSLya6QAIqgxpIaFuF-17" value="Install requirements" style="rounded=1;whiteSpace=wrap;html=1;" vertex="1" parent="1">
          <mxGeometry x="590" y="410" width="110" height="30" as="geometry" />
        </mxCell>
        <mxCell id="QdsSLya6QAIqgxpIaFuF-18" value="Data download" style="rounded=1;whiteSpace=wrap;html=1;" vertex="1" parent="1">
          <mxGeometry x="590" y="470" width="110" height="30" as="geometry" />
        </mxCell>
        <mxCell id="QdsSLya6QAIqgxpIaFuF-19" value="&lt;b&gt;Google Drive&lt;/b&gt;" style="ellipse;shape=cloud;whiteSpace=wrap;html=1;" vertex="1" parent="1">
          <mxGeometry x="40" y="452.5" width="150" height="65" as="geometry" />
        </mxCell>
        <mxCell id="QdsSLya6QAIqgxpIaFuF-22" value="" style="endArrow=classic;html=1;rounded=0;exitX=0.875;exitY=0.5;exitDx=0;exitDy=0;exitPerimeter=0;entryX=0;entryY=0.5;entryDx=0;entryDy=0;" edge="1" parent="1" source="QdsSLya6QAIqgxpIaFuF-19" target="QdsSLya6QAIqgxpIaFuF-18">
          <mxGeometry width="50" height="50" relative="1" as="geometry">
            <mxPoint x="600" y="420" as="sourcePoint" />
            <mxPoint x="650" y="370" as="targetPoint" />
          </mxGeometry>
        </mxCell>
        <mxCell id="QdsSLya6QAIqgxpIaFuF-23" value="" style="endArrow=classic;html=1;rounded=0;exitX=0.5;exitY=1;exitDx=0;exitDy=0;entryX=0.5;entryY=0;entryDx=0;entryDy=0;" edge="1" parent="1" source="QdsSLya6QAIqgxpIaFuF-14" target="QdsSLya6QAIqgxpIaFuF-17">
          <mxGeometry width="50" height="50" relative="1" as="geometry">
            <mxPoint x="600" y="420" as="sourcePoint" />
            <mxPoint x="650" y="370" as="targetPoint" />
          </mxGeometry>
        </mxCell>
        <mxCell id="QdsSLya6QAIqgxpIaFuF-24" value="" style="endArrow=classic;html=1;rounded=0;exitX=0.5;exitY=1;exitDx=0;exitDy=0;entryX=0.5;entryY=0;entryDx=0;entryDy=0;" edge="1" parent="1" source="QdsSLya6QAIqgxpIaFuF-17" target="QdsSLya6QAIqgxpIaFuF-18">
          <mxGeometry width="50" height="50" relative="1" as="geometry">
            <mxPoint x="600" y="420" as="sourcePoint" />
            <mxPoint x="650" y="370" as="targetPoint" />
          </mxGeometry>
        </mxCell>
        <mxCell id="QdsSLya6QAIqgxpIaFuF-25" value="Data encode" style="rounded=1;whiteSpace=wrap;html=1;" vertex="1" parent="1">
          <mxGeometry x="590" y="530" width="110" height="30" as="geometry" />
        </mxCell>
        <mxCell id="QdsSLya6QAIqgxpIaFuF-26" value="" style="endArrow=classic;html=1;rounded=0;exitX=0.5;exitY=1;exitDx=0;exitDy=0;entryX=0.5;entryY=0;entryDx=0;entryDy=0;" edge="1" parent="1" source="QdsSLya6QAIqgxpIaFuF-18" target="QdsSLya6QAIqgxpIaFuF-25">
          <mxGeometry width="50" height="50" relative="1" as="geometry">
            <mxPoint x="600" y="420" as="sourcePoint" />
            <mxPoint x="650" y="370" as="targetPoint" />
          </mxGeometry>
        </mxCell>
        <mxCell id="QdsSLya6QAIqgxpIaFuF-27" value="Data preprocess" style="rounded=1;whiteSpace=wrap;html=1;" vertex="1" parent="1">
          <mxGeometry x="590" y="590" width="110" height="30" as="geometry" />
        </mxCell>
        <mxCell id="QdsSLya6QAIqgxpIaFuF-28" value="Model training" style="rounded=1;whiteSpace=wrap;html=1;" vertex="1" parent="1">
          <mxGeometry x="590" y="650" width="110" height="30" as="geometry" />
        </mxCell>
        <mxCell id="QdsSLya6QAIqgxpIaFuF-29" value="Inference" style="rounded=1;whiteSpace=wrap;html=1;" vertex="1" parent="1">
          <mxGeometry x="590" y="710" width="110" height="30" as="geometry" />
        </mxCell>
        <mxCell id="QdsSLya6QAIqgxpIaFuF-30" value="" style="endArrow=classic;html=1;rounded=0;exitX=0.5;exitY=1;exitDx=0;exitDy=0;entryX=0.5;entryY=0;entryDx=0;entryDy=0;" edge="1" parent="1" source="QdsSLya6QAIqgxpIaFuF-25" target="QdsSLya6QAIqgxpIaFuF-27">
          <mxGeometry width="50" height="50" relative="1" as="geometry">
            <mxPoint x="600" y="540" as="sourcePoint" />
            <mxPoint x="650" y="490" as="targetPoint" />
          </mxGeometry>
        </mxCell>
        <mxCell id="QdsSLya6QAIqgxpIaFuF-31" value="" style="endArrow=classic;html=1;rounded=0;exitX=0.5;exitY=1;exitDx=0;exitDy=0;entryX=0.5;entryY=0;entryDx=0;entryDy=0;" edge="1" parent="1" source="QdsSLya6QAIqgxpIaFuF-27" target="QdsSLya6QAIqgxpIaFuF-28">
          <mxGeometry width="50" height="50" relative="1" as="geometry">
            <mxPoint x="600" y="540" as="sourcePoint" />
            <mxPoint x="650" y="490" as="targetPoint" />
          </mxGeometry>
        </mxCell>
        <mxCell id="QdsSLya6QAIqgxpIaFuF-32" value="" style="endArrow=classic;html=1;rounded=0;exitX=0.5;exitY=1;exitDx=0;exitDy=0;entryX=0.5;entryY=0;entryDx=0;entryDy=0;" edge="1" parent="1" source="QdsSLya6QAIqgxpIaFuF-28" target="QdsSLya6QAIqgxpIaFuF-29">
          <mxGeometry width="50" height="50" relative="1" as="geometry">
            <mxPoint x="600" y="540" as="sourcePoint" />
            <mxPoint x="650" y="490" as="targetPoint" />
          </mxGeometry>
        </mxCell>
        <mxCell id="QdsSLya6QAIqgxpIaFuF-33" value="Create videos" style="rounded=1;whiteSpace=wrap;html=1;" vertex="1" parent="1">
          <mxGeometry x="590" y="770" width="110" height="30" as="geometry" />
        </mxCell>
        <mxCell id="QdsSLya6QAIqgxpIaFuF-34" value="" style="endArrow=classic;html=1;rounded=0;exitX=0.5;exitY=1;exitDx=0;exitDy=0;entryX=0.5;entryY=0;entryDx=0;entryDy=0;" edge="1" parent="1" source="QdsSLya6QAIqgxpIaFuF-29" target="QdsSLya6QAIqgxpIaFuF-33">
          <mxGeometry width="50" height="50" relative="1" as="geometry">
            <mxPoint x="600" y="540" as="sourcePoint" />
            <mxPoint x="650" y="490" as="targetPoint" />
          </mxGeometry>
        </mxCell>
      </root>
    </mxGraphModel>
  </diagram>
</mxfile>
